<svg width="297" height="61" viewBox="0 0 297 61" fill="none" xmlns="http://www.w3.org/2000/svg">
<path d="M259.578 30.95C256.343 30.95 253.226 31.3403 250.254 32.0139C242.853 18.8397 226.673 9.6753 207.849 9.6753C190.186 9.6753 174.817 17.7325 166.875 29.6115C162.952 28.5852 158.778 28.0302 154.45 28.0302C153.808 28.0302 153.184 28.088 152.551 28.1111C147.691 13.5261 133.956 3 117.74 3C102.487 3 89.4145 12.3061 83.8696 25.5439C81.8979 25.0033 79.8337 24.6911 77.6915 24.6911C69.6748 24.6911 62.6092 28.7326 58.3999 34.8847C52.5862 30.5944 45.4223 28.0302 37.6427 28.0302C19.9932 28.0302 5.43421 41.0916 3 58.0675H294.515C293.46 42.9505 278.245 30.95 259.578 30.95Z" fill="#A35BFB" stroke="#C2FD5C" stroke-width="4.357" stroke-miterlimit="10"/>
</svg>
