<svg width="473" height="126" viewBox="0 0 473 126" fill="none" xmlns="http://www.w3.org/2000/svg">
<path d="M180.036 104.774C157.25 104.774 151.608 90.7267 151.608 75.5729C151.608 60.4192 157.36 46.5928 179.925 46.5928C200.83 46.5928 206.693 62.5208 205.255 80.3292H163.886C164.55 90.063 169.417 95.7042 179.593 95.7042C188.995 95.7042 191.982 91.1691 193.088 86.634H205.476C204.481 96.2572 197.844 104.774 180.036 104.774ZM163.997 70.9273H193.088V70.706C193.198 62.9632 189.548 55.7735 178.819 55.7735C167.758 55.7735 164.55 62.6314 163.997 70.9273ZM243.096 104H229.601L206.705 47.3671H219.646L236.459 94.045L253.715 47.3671H267.099L243.096 104ZM295.924 104.774C273.691 104.774 267.939 90.7267 267.939 75.6835C267.939 60.751 273.802 46.5928 296.035 46.5928C318.046 46.5928 324.13 60.751 324.13 75.6835C324.13 90.8373 318.046 104.774 295.924 104.774ZM295.924 95.1511C309.197 95.1511 312.073 86.634 312.073 75.6835C312.073 65.1755 309.419 56.216 296.035 56.216C282.872 56.216 279.996 65.0649 279.996 75.6835C279.996 86.4128 282.872 95.1511 295.924 95.1511ZM345.286 104H333.451V25.7979H345.286V104ZM386.869 104H373.374L350.478 47.3671H363.419L380.232 94.045L397.488 47.3671H410.872L386.869 104ZM440.361 104.774C417.575 104.774 411.934 90.7267 411.934 75.5729C411.934 60.4192 417.685 46.5928 440.25 46.5928C461.156 46.5928 467.018 62.5208 465.58 80.3292H424.211C424.875 90.063 429.742 95.7042 439.918 95.7042C449.32 95.7042 452.307 91.1691 453.413 86.634H465.801C464.806 96.2572 458.169 104.774 440.361 104.774ZM424.322 70.9273H453.413V70.706C453.523 62.9632 449.873 55.7735 439.144 55.7735C428.083 55.7735 424.875 62.6314 424.322 70.9273Z" fill="white"/>
<path d="M119.57 113.749H56.3262C65.0431 108.491 68.924 100.55 69.8535 92.1016H43.6436C42.5589 97.26 38.0403 101.902 26.834 101.902C15.9887 101.902 7.67334 96.5722 6.9502 84.0195H69.6729C72.3842 56.1626 61.9004 29.3371 26.6533 29.3369C15.1771 29.3369 6.50625 31.5371 0 35.2227V0H119.57V113.749ZM25.3877 47.7363C38.5828 47.7364 43.825 54.6147 44.1865 65.9639H6.9502C7.49246 54.6147 12.9155 47.7363 25.3877 47.7363Z" fill="white"/>
</svg>
