<svg width="397" height="133" viewBox="0 0 397 133" fill="none" xmlns="http://www.w3.org/2000/svg">
<line y1="38.5" x2="396.517" y2="38.5" stroke="white" stroke-width="5"/>
<path d="M165.142 88.3639L177.59 76.9285C177.336 76.1123 177.448 74.9722 177.608 73.5022C177.781 71.8849 178.035 69.7429 178.335 67.4892C179.097 61.6733 179.976 56.1454 180.74 52.3213L183.485 38.5794C186.524 23.3658 195.192 16.39 207.886 18.9257C217.192 20.7844 221.204 28.8028 222.424 34.3988C226.004 35.5975 229.064 38.8216 230.757 43.2689C233.477 50.425 232.111 58.5955 227.083 65.1361C220.607 73.5974 214.787 74.4837 211.053 73.7378C207.051 72.9384 203.499 69.8578 201.542 65.49C199.565 61.0722 201.055 55.7584 205.621 50.9217C207.61 48.8155 208.373 46.1825 209.12 43.6324C210.094 40.322 211.175 36.6186 215.091 34.8052C214.026 31.6746 211.625 26.8613 206.666 25.8708C201.707 24.8802 193.55 25.2996 190.91 38.5161L190.146 42.3403L187.902 53.5751C186.83 58.9435 184.986 65.798 184.239 68.4918C183.608 70.7541 183.011 72.8736 182.519 74.4386C182.088 75.843 181.734 76.9465 181.203 77.6058L187.683 92.189C187.927 92.7383 187.683 93.3802 187.133 93.61C186.582 93.8509 185.936 93.6068 185.704 93.0597L179.967 80.1731C179.671 81.5699 179.258 83.4328 178.724 85.8757L183.362 96.7011C183.594 97.2482 183.344 97.889 182.784 98.1166C182.575 98.2072 182.346 98.2192 182.146 98.1792C181.807 98.1114 181.493 97.8875 181.354 97.5376L177.894 89.4797C177.473 91.295 176.999 93.1456 176.514 94.9652L178.876 102.786C179.044 103.367 178.727 103.965 178.15 104.132C177.978 104.184 177.796 104.194 177.624 104.159C177.24 104.082 176.907 103.809 176.796 103.407L175.427 98.9032C173.641 105.234 172.004 110.329 171.97 110.414C171.807 110.939 171.255 111.243 170.731 111.139L170.603 111.113C170.033 110.925 169.71 110.313 169.897 109.752C169.914 109.669 171.492 104.81 173.215 98.7031L169.662 102.091C169.227 102.505 168.547 102.49 168.128 102.066C167.709 101.643 167.728 100.939 168.166 100.543L174.346 94.6643C174.859 92.7639 175.353 90.8137 175.791 88.9098L168.659 95.0304C168.21 95.4241 167.511 95.3593 167.126 94.914C166.74 94.4686 166.793 93.7712 167.239 93.3885L176.604 85.3601C177.15 82.9194 177.548 81.071 177.842 79.6853L166.626 89.997C166.358 90.237 165.999 90.3264 165.671 90.2608C165.459 90.2185 165.245 90.101 165.082 89.9359C164.682 89.5049 164.698 88.8119 165.134 88.3982L165.142 88.3639ZM207.201 52.4046C204.024 55.7641 201.634 60.3974 203.519 64.6068C204.951 67.8108 207.776 70.8786 211.466 71.6156C215.156 72.3527 220.138 70.6199 225.347 63.839C233.481 53.2224 229.602 40.3039 222.8 36.8971C222.14 36.5755 221.462 36.3192 220.767 36.1802C220.683 36.1636 220.594 36.1458 220.507 36.1457C219.617 35.9966 218.698 36.0202 217.767 36.2198C217.596 36.2606 217.429 36.2848 217.27 36.3279C216.676 36.4912 216.169 36.7122 215.709 36.9598C210.51 39.691 212.213 47.133 207.216 52.4145L207.201 52.4046ZM182.863 52.7574C181.372 60.2232 179.937 71.6371 179.626 75.1079C179.568 75.7754 179.55 76.1518 179.595 76.1607C179.639 76.1696 179.782 75.8011 180.002 75.1658C181.138 71.767 184.323 60.4264 185.775 53.1597L188.783 38.1005C191.412 24.9397 199.832 22.305 207.101 23.757C213.14 24.9632 215.968 30.5351 217.178 34.1264C218.123 33.9179 219.089 33.8291 220.035 33.9029C218.907 29.7007 215.792 22.7247 207.46 21.0604C194.921 18.5557 188.155 26.3262 185.62 39.0159L182.875 52.7577L182.863 52.7574Z" fill="white"/>
</svg>
