<svg width="397" height="114" viewBox="0 0 397 114" fill="none" xmlns="http://www.w3.org/2000/svg">
<line y1="2.5" x2="396.517" y2="2.5" stroke="white" stroke-width="5"/>
<path d="M189.001 46.5002C193.001 40.5002 198.667 39.6669 201.001 40.0002C203 39.9998 208.5 44.0004 209.5 45.5C210.377 46.8155 211.5 53 210.5 54C209.7 54.8 208.833 58.3333 208.5 60C208.5 61.3333 208.7 64.5 209.5 66.5C210.5 69 209 73 208.5 74.5C208 76 204 78.5 201.001 78.5C198.001 78.5 194 77 191 74C188.6 71.6 186.334 65.3333 185.501 62.5C185.001 59.6667 185.001 52.5002 189.001 46.5002Z" stroke="white" stroke-width="3"/>
</svg>
