<svg width="397" height="109" viewBox="0 0 397 109" fill="none" xmlns="http://www.w3.org/2000/svg">
<line y1="13.5" x2="396.517" y2="13.5" stroke="white" stroke-width="5"/>
<path d="M219.034 20.7368L212.405 36.2855C212.972 36.9246 213.34 38.0096 213.8 39.4151C214.309 40.9598 214.96 43.0162 215.616 45.1932C217.318 50.8065 218.795 56.2052 219.675 60.0043L222.837 73.6562C226.338 88.7703 221.315 98.6985 208.703 101.619C199.459 103.761 192.499 98.108 189.081 93.5121C185.325 93.8954 181.209 92.2188 177.833 88.8643C172.406 83.4651 170.283 75.4578 172.169 67.4264C174.583 57.048 179.521 53.8421 183.231 52.9828C187.206 52.062 191.711 53.4053 195.295 56.5783C198.917 59.789 199.749 65.2445 197.582 71.533C196.638 74.2717 197.027 76.9853 197.398 79.6166C197.875 83.0341 198.416 86.854 195.595 90.1199C197.855 92.5336 202.027 95.9296 206.953 94.7887C211.879 93.6476 219.139 89.9039 216.098 76.7739L215.218 72.9747L212.633 61.8134C211.398 56.4801 210.253 49.4749 209.823 46.7129C209.466 44.3914 209.136 42.2143 208.94 40.5856C208.754 39.1283 208.621 37.9772 208.833 37.1576L196.919 26.5408C196.471 26.1406 196.429 25.4552 196.835 25.0193C197.238 24.5725 197.927 24.5288 198.364 24.9316L208.902 34.309C208.596 32.9141 208.204 31.0467 207.685 28.6008L198.998 20.6485C198.561 20.2457 198.524 19.5591 198.941 19.1206C199.094 18.9519 199.297 18.847 199.496 18.8009C199.833 18.7228 200.212 18.7973 200.482 19.0591L206.956 24.975C206.591 23.1477 206.26 21.2663 205.952 19.4085L200.577 13.2555C200.185 12.796 200.227 12.1201 200.684 11.7304C200.82 11.612 200.981 11.5284 201.152 11.4887C201.534 11.4003 201.95 11.5124 202.216 11.8331L205.32 15.3722C204.338 8.86807 203.73 3.55175 203.726 3.46007C203.658 2.91395 204.036 2.40924 204.556 2.28886L204.683 2.2594C205.28 2.19641 205.827 2.62014 205.887 3.20859C205.906 3.29106 206.471 8.36837 207.417 14.6432L209.258 10.0921C209.485 9.53569 210.11 9.2691 210.667 9.48207C211.223 9.69504 211.496 10.3444 211.26 10.8857L208.051 18.7891C208.367 20.732 208.721 22.7124 209.106 24.6276L213.082 16.112C213.329 15.5682 213.992 15.3392 214.527 15.586C215.062 15.8329 215.302 16.49 215.052 17.0228L209.828 28.197C210.337 30.6456 210.736 32.4939 211.039 33.8777L217.009 19.8603C217.154 19.5312 217.444 19.3017 217.771 19.2262C217.981 19.1775 218.224 19.1965 218.441 19.2794C218.983 19.5072 219.254 20.1456 219.027 20.7021L219.034 20.7368ZM195.531 70.833C197.042 66.4628 197.31 61.2564 193.857 58.1978C191.232 55.8687 187.394 54.2377 183.728 55.0867C180.063 55.9357 176.237 59.5677 174.286 67.8926C171.25 80.9177 180.107 91.09 187.709 91.3907C188.443 91.412 189.166 91.3661 189.857 91.206C189.94 91.1868 190.029 91.1664 190.108 91.1306C190.98 90.8995 191.808 90.4993 192.574 89.9337C192.713 89.8264 192.855 89.7355 192.982 89.6308C193.456 89.2371 193.827 88.8268 194.144 88.4115C197.755 83.7806 193.137 77.7015 195.513 70.8303L195.531 70.833ZM217.561 60.482C215.843 53.065 212.447 42.0741 211.3 38.7833C211.078 38.1512 210.939 37.8011 210.894 37.8114C210.85 37.8216 210.872 38.2164 210.934 38.8856C211.299 42.4506 213.07 54.0962 214.742 61.3154L218.207 76.276C221.235 89.3507 214.649 95.2214 207.428 96.894C201.429 98.2834 196.556 94.3721 193.973 91.5986C193.199 92.1777 192.354 92.6571 191.462 92.9797C194.222 96.3435 199.935 101.416 208.212 99.4987C220.669 96.6135 223.632 86.7452 220.712 74.1385L217.55 60.4866L217.561 60.482Z" fill="white"/>
</svg>
