<svg width="397" height="142" viewBox="0 0 397 142" fill="none" xmlns="http://www.w3.org/2000/svg">
<line y1="138.5" x2="396.517" y2="138.5" stroke="white" stroke-width="5"/>
<path fill-rule="evenodd" clip-rule="evenodd" d="M203.503 37.5764C206.231 8.47646 237.546 -9.31836 263.744 5.11043C264.332 5.43218 264.641 6.06331 264.58 6.69445C264.19 12.7335 262.556 18.2467 259.995 23.0795C256.257 30.1333 250.534 35.7393 243.765 39.4582C232.002 45.9118 217.784 46.314 205.501 40.2812C203.62 42.6014 201.944 45.1693 200.465 47.9909C194.952 58.5035 192.173 72.5114 192.124 90.01C192.421 93.11 192.545 96.309 192.477 99.5884C199.493 99.7926 206.021 101.271 211.528 103.678C217.375 106.234 222.096 109.853 225.072 114.135C233.902 113.801 242.126 118.065 246.989 125.254C257.749 123.72 268.156 129.134 273.076 138.657C273.639 139.746 272.834 141.033 271.628 141.033V141.039L132.358 141.033C131.455 141.033 130.725 140.302 130.725 139.399C130.725 125.452 142.048 114.123 156.001 114.123V114.117C156.174 114.117 156.353 114.117 156.539 114.123C163.123 104.675 176.648 99.9597 189.092 99.5884C188.937 96.3399 188.863 93.1966 188.869 90.1463C187.954 80.8959 185.349 72.5795 181.079 65.6558C179.05 62.3641 176.637 59.3817 173.852 56.7643C159.54 63.6882 142.208 58.1626 134.865 44.3087C133.027 40.8375 131.852 36.8774 131.573 32.5461C131.517 31.9212 131.821 31.2838 132.408 30.9683C141.325 26.0553 151.602 26.0987 160.339 30.8755C165.209 33.5423 169.348 37.5705 172.12 42.5885C174.001 45.9916 175.251 49.8402 175.684 54.0293C178.846 56.9312 181.569 60.2602 183.846 63.9541C186.216 67.7966 188.097 72.029 189.495 76.583C190.924 61.5781 194.977 47.7428 203.504 37.5893L203.503 37.5764ZM233.884 126.924C232.523 126.924 231.421 128.026 231.421 129.387C231.421 130.748 232.523 131.85 233.884 131.85C235.245 131.85 236.347 130.748 236.347 129.387C236.347 128.026 235.245 126.924 233.884 126.924ZM198.565 119.543C197.204 119.543 196.103 120.644 196.103 122.005C196.103 123.366 197.204 124.468 198.565 124.468C199.926 124.468 201.028 123.366 201.028 122.005C201.028 120.644 199.927 119.543 198.565 119.543ZM189.439 110.552C188.077 110.552 186.976 111.653 186.976 113.015C186.976 114.376 188.077 115.477 189.439 115.477C190.8 115.477 191.901 114.376 191.901 113.015C191.901 111.653 190.8 110.552 189.439 110.552ZM166.711 122.005C165.35 122.005 164.248 123.107 164.248 124.468C164.248 125.829 165.35 126.931 166.711 126.931C168.072 126.931 169.174 125.829 169.174 124.468C169.174 123.107 168.072 122.005 166.711 122.005ZM171.135 54.4121C166.779 50.9656 161.637 48.3049 155.722 46.5787C154.856 46.3312 154.361 45.4278 154.614 44.5616C154.862 43.6953 155.765 43.2003 156.632 43.454C162.398 45.137 167.478 47.6553 171.865 50.8729C168.054 34.7049 150.172 25.6269 134.913 33.3252C136.714 50.96 155.165 61.1326 171.141 54.4179L171.135 54.4121ZM207.412 33.4794C213.724 27.6754 221.625 23.8886 231.13 22.1128C232.015 21.9519 232.862 22.5335 233.023 23.4184C233.184 24.3032 232.603 25.1509 231.718 25.3117C221.886 27.1432 213.891 31.2827 207.734 37.7301C218.878 42.9028 231.624 42.3955 242.199 36.5978C253.027 30.6577 260.124 20.0274 261.256 7.47248C238.863 -4.14769 212.437 9.49625 207.412 33.4794ZM210.723 123.564C210.079 124.189 209.046 124.176 208.421 123.533C207.796 122.889 207.808 121.856 208.452 121.231C211.979 117.809 216.452 115.471 221.31 114.555C218.668 111.393 214.85 108.677 210.234 106.66C196.702 100.744 178.102 101.654 166.135 109.481C160.046 113.46 156.284 118.898 156.284 124.838C156.284 125.742 155.554 126.472 154.651 126.472C153.747 126.472 153.017 125.742 153.017 124.838C153.017 122.246 153.593 119.752 154.657 117.407C143.711 118.075 134.851 126.769 134.046 137.759H268.749C264.244 131.243 256.572 127.58 248.534 128.335C247.897 128.397 247.247 128.484 246.597 128.607C245.923 128.781 245.186 128.508 244.803 127.883C237.415 115.861 220.808 113.794 210.715 123.571L210.723 123.564Z" fill="white"/>
</svg>
